<?xml version="1.0" encoding="utf-8"?>
<!-- Generator: Adobe Illustrator 24.0.1, SVG Export Plug-In . SVG Version: 6.00 Build 0)  -->
<svg version="1.1" id="Layer_1" xmlns="http://www.w3.org/2000/svg" xmlns:xlink="http://www.w3.org/1999/xlink" x="0px" y="0px"
	 viewBox="0 0 600 143" style="enable-background:new 0 0 600 143;" xml:space="preserve">
<style type="text/css">
	.st0{fill:#481DBD;}
	.st1{fill:none;}
</style>
<g>
	<path d="M254.4,109.2c8.5,0,16.5,0,24.5,0c0.4,0,1,0.3,1.2,0.6c2.8,5.5,7.7,6.4,13.1,5.7c7.6-1,12.2-6.5,12.3-14.2
		c0-1.8,0-3.7,0-5.5c-2.7,1.7-5.2,3.6-7.9,4.8c-14.3,6.5-30.5,1.1-38.6-12.8c-8-13.8-6.7-31.4,3.3-43.3
		c11.1-13.2,29.1-14.8,42.4-3.7c0.1,0.1,0.3,0.2,0.8,0.5c0-2,0-3.9,0-5.8c0.6-0.1,0.9-0.1,1.2-0.1c7.1,0,14.2,0,21.4,0
		c0.1,0.6,0.2,1.1,0.2,1.6c0,21.5,0.2,43-0.2,64.5c-0.3,16.4-9.8,28.1-26.3,31.4c-10.2,2.1-20.3,1.5-29.8-3
		c-7.3-3.5-13.1-8.7-16.2-16.4C255.1,112.3,254.9,110.9,254.4,109.2z M305.4,68.5c0-0.6,0-1.2,0-1.7c-0.4-7.5-6.7-13.5-14.1-13.4
		c-7.4,0-13.6,6-14.3,13.6c-0.7,7.8,4.8,15.3,11.9,16.4C298.1,84.8,305.4,78.3,305.4,68.5z"/>
	<path d="M523,101c-4.9,0-9.7-0.1-14.4,0c-1.4,0-1.6-0.8-1.9-1.7c-6.6-15.7-13.2-31.5-19.8-47.2c-2.3-5.5-4.6-10.9-7-16.6
		c0.8,0,1.3-0.1,1.8-0.1c6.3,0,12.5,0,18.8,0c1.4,0,2.1,0.4,2.6,1.7c3.6,9.2,7.3,18.4,11,27.6c0.1,0.3,0.3,0.7,0.6,1.3
		c0.4-0.8,0.7-1.4,0.9-2c3.4-9,6.8-17.9,10.1-26.9c0.5-1.3,1.1-1.7,2.5-1.7c5.1,0.1,10.2,0.1,15.4,0c1.4,0,2,0.4,2.5,1.7
		c3.3,8.9,6.7,17.7,10,26.5c0.3,0.7,0.6,1.4,1,2.5c0.4-0.9,0.6-1.4,0.8-2c3.6-9,7.2-18,10.7-27.1c0.5-1.3,1.1-1.7,2.5-1.7
		c6.3,0.1,12.5,0,18.8,0c0.6,0,1.1,0,1.9,0.1c-0.3,0.8-0.6,1.4-0.8,2.1c-8.6,20.6-17.2,41.1-25.8,61.7c-0.6,1.3-1.2,1.8-2.7,1.7
		c-4-0.1-7.9-0.1-11.9,0c-1.4,0-2-0.4-2.4-1.7c-3.9-11.8-7.9-23.5-11.8-35.2c-0.1-0.3-0.3-0.7-0.6-1.4
		C531.6,75.7,527.3,88.3,523,101z"/>
	<path d="M4,4.7c9.7,0,19,0,28.4,0.1c0.6,0,1.4,0.7,1.8,1.3c5.1,7.2,10.1,14.5,15.1,21.7c0.4,0.6,0.9,1.2,1.5,2
		c0.4-0.5,0.8-0.9,1.1-1.3C57,21,62.2,13.5,67.3,6c0.7-1,1.4-1.4,2.6-1.4c9.1,0.1,18.2,0,27.6,0C97,5.4,96.7,6,96.3,6.5
		C85.4,22.3,74.6,38,63.7,53.7c-0.6,0.8-0.9,2-0.9,3c-0.1,14,0,27.9,0,41.9c0,0.8,0,1.5,0,2.3c-8.1,0-15.9,0-23.9,0
		c0-0.8,0-1.6,0-2.4c0-14,0-27.9,0-41.9c0-1-0.4-2.2-0.9-3C27.1,38,16.2,22.4,5.4,6.7C5,6.1,4.6,5.6,4,4.7z"/>
	<path d="M400.9,69.9c0-18.7,11.5-32,28-35.6c10.7-2.3,21.2-1.6,30.9,3.9c11.9,6.7,17.8,17.2,17.6,30.8
		c-0.2,16.3-10.8,29.3-27.1,33.3c-10.9,2.6-21.6,1.9-31.4-3.6C406.9,92.1,401.2,81.6,400.9,69.9z M424.6,68.4
		c0,8.5,6.6,15.5,14.9,15.3c8.3-0.2,14.8-7.5,14.4-15.8c-0.4-8.7-7.1-15.1-15.4-14.8C430.8,53.3,424.3,60.5,424.6,68.4z"/>
	<path d="M127.4,33c9.4,0.2,18.1,2.5,25.5,8.5c17.4,14,16.8,41-1,54.4c-6.2,4.7-13.3,6.9-21,7.5c-8.9,0.7-17.4-0.7-25.1-5.4
		C95.5,91.8,90,82.5,89.1,70.4c-1.3-19.5,13.1-34.4,31.2-36.6C122.7,33.4,125,33.2,127.4,33z M141.9,68.4
		c-0.1-8.7-6.6-15.4-14.8-15.3c-8.1,0.1-14.5,7-14.4,15.3c0.1,8.5,6.6,15.4,14.6,15.4C135.4,83.7,142,76.7,141.9,68.4z"/>
	<path d="M175.9,35.6c7.4,0,14.8,0,22.4,0c0,0.7,0,1.4,0,2.1c0,11.8,0,23.7,0,35.5c0,1.2,0.1,2.4,0.3,3.6c0.8,3.9,3.1,6.6,7.1,7.4
		c2.2,0.4,4.5,0.6,6.6,0.2c5.4-0.9,8.5-4.6,8.5-10.2c0-12.1,0-24.2,0-36.3c0-0.8,0-1.5,0-2.4c7.6,0,15,0,22.6,0
		c0,0.5,0.1,1.1,0.1,1.6c0,13.7,0.1,27.4,0,41.1c0,6.9-2.2,13.1-7.7,17.7c-4.4,3.7-9.7,5.6-15.3,6.5c-7.8,1.4-15.7,1.3-23.4-0.3
		c-6.4-1.3-12.3-3.8-16.6-9.1c-3.2-4-4.7-8.7-4.7-13.7c-0.1-14.4-0.1-28.8-0.1-43.2C175.7,36,175.8,35.8,175.9,35.6z"/>
	<path d="M342.3,35.6c7.5,0,14.9,0,22.4,0c0,21.8,0,43.5,0,65.3c-7.5,0-14.9,0-22.4,0C342.3,79.1,342.3,57.4,342.3,35.6z"/>
	<path class="st0" d="M369.8,48.3c0.2-7.2,5.8-12.9,12.7-12.7c6.8,0.2,12.4,6.1,12.3,13c-0.1,7.1-5.8,12.8-12.7,12.7
		C375.1,61.2,369.6,55.4,369.8,48.3z"/>
	<rect class="st1" width="600" height="143"/>
</g>
<g>
</g>
<g>
</g>
<g>
</g>
<g>
</g>
<g>
</g>
<g>
</g>
<g>
</g>
<g>
</g>
<g>
</g>
<g>
</g>
<g>
</g>
<g>
</g>
<g>
</g>
<g>
</g>
<g>
</g>
</svg>
